# xmcd
# Track frame offsets:
# 150
# 16360
# 30080
# 49030
# 65792
# 82592
# 98582
# 113672
# 129332
# 144980
# 157520
#
# Disc length: 2329 seconds
# Revision: 0
# Processed by: cddbd v1.5.1PL2 Copyright (c) Steve Scherf et al.
# Submitted via: VisiTrax 2.9.10.228 - For more info visit www.synapsa.com
#
DISCID=6f09170b
DTITLE=Nils Maaetoft - Throwing Rocks At The Moon
DYEAR=1992
DGENRE=Country
TTITLE0=Kackie LeRoux
TTITLE1=Love Is Still A Mystery
TTITLE2=Throwing Rocks At The Moon
TTITLE3=Midnite Flyer
TTITLE4=Running Out Of Love
TTITLE5=Step Right Up
TTITLE6=Weary Blues(From Waitin*)
TTITLE7=Diving For Pearls
TTITLE8=Come Over Early
TTITLE9=A Place God Never Wanted
TTITLE10=Hopelessly Tempted
EXTD=
EXTT0=
EXTT1=
EXTT2=
EXTT3=
EXTT4=
EXTT5=
EXTT6=
EXTT7=
EXTT8=
EXTT9=
EXTT10=
PLAYORDER=
